<?xml version="1.0" standalone="no"?>
<!DOCTYPE svg PUBLIC "-//W3C//DTD SVG 20010904//EN"
 "http://www.w3.org/TR/2001/REC-SVG-20010904/DTD/svg10.dtd">
<svg version="1.0" xmlns="http://www.w3.org/2000/svg"
 width="128.000000pt" height="128.000000pt" viewBox="0 0 128.000000 128.000000"
 preserveAspectRatio="xMidYMid meet">

<g transform="translate(0.000000,128.000000) scale(0.100000,-0.100000)"
fill="#000000" stroke="none">
<path d="M445 1243 c-32 -14 -82 -18 -242 -20 l-203 -4 0 -34 0 -35 145 0 c80
0 145 -3 145 -6 0 -3 -5 -15 -11 -27 -6 -12 8 -2 31 23 41 44 41 45 21 9 -24
-42 -28 -62 -6 -33 11 14 10 6 -4 -37 -10 -30 -22 -80 -27 -110 l-8 -54 -7 40
-6 40 -2 -50 c-4 -83 -25 -217 -34 -209 -12 12 -8 127 6 180 13 48 23 154 14
154 -3 0 -11 -39 -17 -87 -7 -49 -19 -105 -26 -127 -16 -43 -19 -85 -4 -51 6
15 9 5 9 -34 1 -52 -12 -62 -21 -17 -1 11 -3 -41 -3 -115 l0 -134 -47 -114
c-26 -63 -46 -116 -44 -118 2 -2 14 12 26 32 32 52 36 36 6 -23 -14 -27 -31
-71 -38 -98 -12 -48 -12 -48 -19 -19 -4 20 -7 2 -8 -52 0 -45 -4 -88 -7 -97
-5 -14 5 -16 74 -16 55 0 82 4 85 13 4 9 6 9 6 0 1 -10 108 -13 502 -13 l502
0 -6 43 c-5 38 -4 40 9 23 8 -11 14 -30 14 -43 0 -14 6 -23 15 -23 13 0 15 74
15 610 l0 610 -287 0 c-264 0 -292 2 -341 20 -64 24 -152 25 -207 3z m803
-632 l2 -534 -21 19 c-12 10 -27 31 -34 45 -13 24 -45 36 -45 17 0 -4 6 -8 13
-8 14 0 44 -61 54 -109 4 -25 3 -33 -7 -29 -17 5 -66 94 -75 135 -6 29 -4 32
15 28 14 -3 20 0 17 8 -3 7 -10 11 -16 9 -7 -1 -10 1 -7 6 3 5 -1 18 -9 28 -8
11 -14 42 -15 75 0 110 -46 199 -101 199 -24 0 -52 44 -52 81 0 16 -4 29 -9
29 -20 0 -29 45 -47 225 -14 140 -27 186 -72 255 l-39 60 223 -2 222 -3 3
-534z m-562 392 c28 -18 114 -119 114 -134 0 -5 -7 -9 -15 -9 -24 0 -75 -29
-75 -43 0 -6 5 -19 11 -27 8 -11 12 -12 16 -2 2 6 11 12 19 12 8 0 14 9 14 20
0 23 17 25 43 5 17 -12 18 -22 12 -90 -7 -68 -12 -82 -46 -125 -21 -26 -35
-50 -32 -54 11 -11 -50 -26 -109 -26 -49 0 -61 3 -65 18 -5 20 -86 72 -111 72
-25 0 -47 -16 -33 -24 6 -4 16 -4 21 -1 6 3 10 -1 10 -9 0 -11 -6 -13 -30 -6
-16 5 -35 12 -42 16 -7 4 -2 -6 12 -21 l25 -29 -37 22 -38 21 -16 -32 -15 -32
20 25 c26 32 35 21 22 -26 -7 -25 -7 -42 -1 -48 7 -7 10 -1 10 16 0 33 9 58
21 58 6 0 7 -28 3 -67 -8 -78 -39 -147 -64 -138 -8 4 -27 9 -42 12 -31 6 -44
38 -55 135 -5 52 -3 62 22 98 16 23 32 43 36 46 12 7 60 -7 54 -16 -4 -6 15
-6 80 0 6 0 -5 13 -23 28 -25 20 -33 35 -30 52 4 32 28 38 29 8 1 -17 3 -18 6
-5 5 20 12 21 48 7 17 -7 24 -7 20 0 -12 20 7 32 21 13 7 -10 14 -13 14 -6 0
7 6 10 13 7 7 -2 19 7 27 21 7 14 20 26 29 26 13 1 12 2 -1 6 -25 6 -22 18 8
38 14 9 34 35 44 58 l19 42 1 -35 2 -35 11 33 c7 22 7 50 0 87 -5 30 -8 55 -6
55 2 0 15 -8 29 -17z"/>
<path d="M708 923 c7 -3 16 -2 19 1 4 3 -2 6 -13 5 -11 0 -14 -3 -6 -6z"/>
<path d="M295 559 c-4 -6 -5 -12 -2 -15 2 -3 7 2 10 11 7 17 1 20 -8 4z"/>
</g>
</svg>
